# Blender v2.80 (sub 75) OBJ File: ''
# www.blender.org
mtllib nol.mtl
o Icosphere
v 0.167119 -1.541393 -0.332293
v 0.723607 -0.447220 0.525725
v -0.276388 -0.447220 0.850649
v -0.894426 -0.447216 0.000000
v -0.276388 -0.447220 -0.850649
v 0.723607 -0.447220 -0.525725
v 0.896934 0.760924 1.266899
v -0.723607 0.447220 0.525725
v -0.723607 0.447220 -0.525725
v 0.276388 0.447220 -0.850649
v 0.894426 0.447216 0.000000
v 0.000000 1.000000 0.000000
v -0.162456 -0.850654 0.499995
v 0.425323 -0.850654 0.309011
v 0.262869 -0.525738 0.809012
v 0.850648 -0.525736 0.000000
v 0.425323 -0.850654 -0.309011
v -0.525730 -0.850652 0.000000
v -0.688189 -0.525736 0.499997
v -0.162456 -0.850654 -0.499995
v -0.688189 -0.525736 -0.499997
v 0.262869 -0.525738 -0.809012
v 0.951058 0.000000 0.309013
v 0.951058 0.000000 -0.309013
v 0.000000 0.000000 1.000000
v 0.587786 0.000000 0.809017
v -0.951058 0.000000 0.309013
v -0.587786 0.000000 0.809017
v -0.587786 0.000000 -0.809017
v -0.951058 0.000000 -0.309013
v 0.587786 0.000000 -0.809017
v 0.000000 0.000000 -1.000000
v 0.688189 0.525736 0.499997
v -0.262869 0.525738 0.809012
v -0.850648 0.525736 0.000000
v -0.262869 0.525738 -0.809012
v 0.681792 0.491656 -1.058365
v 0.525730 0.850652 0.000000
v 0.525730 0.850652 0.000000
v -0.425323 0.850654 0.309011
v -0.738479 1.304192 -1.030496
v 0.162456 0.850654 -0.499995
vt 0.818181 0.000000
vt 0.772726 0.078731
vt 0.863635 0.078731
vt 0.727272 0.157461
vt 0.681818 0.078731
vt 0.636363 0.157461
vt 0.090909 0.000000
vt 0.045454 0.078731
vt 0.136363 0.078731
vt 0.272727 0.000000
vt 0.227273 0.078731
vt 0.318182 0.078731
vt 0.454545 0.000000
vt 0.409090 0.078731
vt 0.500000 0.078731
vt 0.681818 0.236191
vt 0.909090 0.157461
vt 0.818181 0.157461
vt 0.863635 0.236191
vt 0.181818 0.157461
vt 0.090909 0.157461
vt 0.136363 0.236191
vt 0.363636 0.157461
vt 0.272727 0.157461
vt 0.318182 0.236191
vt 0.545454 0.157461
vt 0.454545 0.157461
vt 0.500000 0.236191
vt 0.772726 0.236191
vt 0.954545 0.236191
vt 0.227273 0.236191
vt 0.409090 0.236191
vt 0.590909 0.236191
vt 0.818181 0.314921
vt 0.727272 0.314921
vt 0.681818 0.393652
vt 1.000000 0.314921
vt 0.909091 0.314921
vt 0.954545 0.393651
vt 0.272727 0.314921
vt 0.181818 0.314921
vt 0.227273 0.393651
vt 0.454545 0.314921
vt 0.363636 0.314921
vt 0.409090 0.393651
vt 0.636363 0.314921
vt 0.545454 0.314921
vt 0.590909 0.393651
vt 0.500000 0.393651
vt 0.545454 0.472382
vt 0.318182 0.393651
vt 0.363636 0.472382
vt 0.136363 0.393651
vt 0.181818 0.472382
vt 0.090909 0.314921
vt 0.830482 0.468578
vt 0.909090 0.472382
vt 0.681818 0.393651
vt 0.727272 0.472382
vt 0.045454 0.236191
vt 0.000000 0.157461
vt 0.590909 0.078731
vt 0.636363 0.000000
vn 0.2187 -0.7066 0.6730
vn 0.7002 -0.6617 0.2680
vn -0.5458 -0.7382 0.3965
vn -0.7152 -0.4674 -0.5196
vn 0.3080 -0.0832 -0.9478
vn 0.9050 -0.3304 0.2680
vn 0.0247 -0.3304 0.9435
vn -0.8897 -0.3304 0.3151
vn -0.5746 -0.3304 -0.7488
vn 0.5346 -0.3304 -0.7779
vn 0.8026 -0.1256 0.5831
vn -0.3066 -0.1256 0.9435
vn -0.9921 -0.1256 0.0000
vn -0.3066 -0.1256 -0.9435
vn 0.8026 -0.1256 -0.5831
vn 0.9593 0.0529 -0.2773
vn -0.4713 0.6617 0.5831
vn -0.9668 -0.1419 -0.2124
vn 0.0385 0.6617 -0.7488
vn 0.7329 0.6698 -0.1191
vn 0.2680 0.9435 -0.1947
vn 0.3499 0.9016 -0.2542
vn -0.4344 0.5179 -0.7370
vn 0.4929 0.8645 -0.0981
vn 0.5389 0.0910 -0.8374
vn -0.4029 -0.4697 -0.7855
vn -0.0843 0.9377 0.3372
vn -0.7183 0.5905 0.3679
vn -0.7002 0.6617 0.2680
vn 0.2091 0.7362 0.6437
vn 0.1625 0.8507 0.5000
vn -0.2499 0.9579 0.1411
vn 0.0000 0.0000 1.0000
vn 0.7240 0.6617 0.1947
vn 0.9523 0.2457 -0.1810
vn 0.7370 -0.4125 -0.5355
vn -0.3954 -0.3542 -0.8475
vn -0.0247 0.3304 -0.9435
vn -0.3035 0.1876 -0.9342
vn -0.5346 0.3304 -0.7779
vn -0.9050 0.3304 -0.2680
vn -0.9822 0.1876 0.0000
vn -0.9050 0.3304 0.2680
vn -0.5346 0.3304 0.7779
vn -0.3035 0.1876 0.9342
vn -0.3877 0.1373 0.9115
vn 0.9444 -0.2808 -0.1709
vn 0.7947 0.1876 0.5773
vn 0.8897 0.3304 0.3151
vn 0.3066 0.1256 -0.9435
vn 0.3035 -0.1876 -0.9342
vn 0.0247 -0.3304 -0.9435
vn -0.8026 0.1256 -0.5831
vn -0.7947 -0.1876 -0.5773
vn -0.8897 -0.3304 -0.3151
vn -0.8026 0.1256 0.5831
vn -0.7947 -0.1876 0.5773
vn -0.5746 -0.3304 0.7488
vn 0.2534 -0.5723 0.7799
vn 0.3035 -0.1876 0.9342
vn 0.5346 -0.3304 0.7779
vn 0.9921 0.1256 0.0000
vn 0.9822 -0.1876 0.0000
vn 0.9050 -0.3304 -0.2680
vn 0.4713 -0.6617 -0.5831
vn 0.1876 -0.7947 -0.5773
vn -0.0385 -0.6617 -0.7488
vn -0.4089 -0.6617 -0.6284
vn -0.4911 -0.7947 -0.3568
vn -0.7240 -0.6617 -0.1947
vn -0.7240 -0.6617 0.1947
vn -0.4911 -0.7947 0.3568
vn -0.4089 -0.6617 0.6284
vn 0.7002 -0.6617 -0.2680
vn 0.6071 -0.7947 0.0000
vn 0.9367 -0.3501 0.0000
vn -0.0385 -0.6617 0.7488
vn 0.1876 -0.7947 0.5773
vn 0.4713 -0.6617 0.5831
usemtl Material.001
s off
f 1/1/1 14/2/1 13/3/1
f 2/4/2 14/5/2 16/6/2
f 1/7/3 13/8/3 18/9/3
f 1/10/4 18/11/4 20/12/4
f 1/13/5 20/14/5 17/15/5
f 2/4/6 16/6/6 23/16/6
f 3/17/7 15/18/7 25/19/7
f 4/20/8 19/21/8 27/22/8
f 5/23/9 21/24/9 29/25/9
f 6/26/10 22/27/10 31/28/10
f 2/4/11 23/16/11 26/29/11
f 3/17/12 25/19/12 28/30/12
f 4/20/13 27/22/13 30/31/13
f 5/23/14 29/25/14 32/32/14
f 6/26/15 31/28/15 24/33/15
f 7/34/16 33/35/16 38/36/16
f 8/37/17 34/38/17 40/39/17
f 9/40/18 35/41/18 41/42/18
f 10/43/19 36/44/19 42/45/19
f 11/46/20 37/47/20 39/48/20
f 39/48/21 42/49/21 12/50/21
f 39/48/22 37/47/22 42/49/22
f 37/47/23 10/43/23 42/49/23
f 42/45/24 41/51/24 12/52/24
f 42/45/25 36/44/25 41/51/25
f 36/44/26 9/40/26 41/51/26
f 41/42/27 40/53/27 12/54/27
f 41/42/28 35/41/28 40/53/28
f 35/41/29 8/55/29 40/53/29
f 40/39/30 38/56/30 12/57/30
f 40/39/31 34/38/31 38/56/31
f 34/38/32 7/34/32 38/56/32
f 38/36/33 39/58/33 12/59/33
f 38/36/33 33/35/33 39/58/33
f 33/35/34 11/46/34 39/58/34
f 24/33/35 37/47/35 11/46/35
f 24/33/36 31/28/36 37/47/36
f 31/28/37 10/43/37 37/47/37
f 32/32/38 36/44/38 10/43/38
f 32/32/39 29/25/39 36/44/39
f 29/25/40 9/40/40 36/44/40
f 30/31/41 35/41/41 9/40/41
f 30/31/42 27/22/42 35/41/42
f 27/22/43 8/55/43 35/41/43
f 28/30/44 34/38/44 8/37/44
f 28/30/45 25/19/45 34/38/45
f 25/19/46 7/34/46 34/38/46
f 26/29/47 33/35/47 7/34/47
f 26/29/48 23/16/48 33/35/48
f 23/16/49 11/46/49 33/35/49
f 31/28/50 32/32/50 10/43/50
f 31/28/51 22/27/51 32/32/51
f 22/27/52 5/23/52 32/32/52
f 29/25/53 30/31/53 9/40/53
f 29/25/54 21/24/54 30/31/54
f 21/24/55 4/20/55 30/31/55
f 27/22/56 28/60/56 8/55/56
f 27/22/57 19/21/57 28/60/57
f 19/21/58 3/61/58 28/60/58
f 25/19/59 26/29/59 7/34/59
f 25/19/60 15/18/60 26/29/60
f 15/18/61 2/4/61 26/29/61
f 23/16/62 24/33/62 11/46/62
f 23/16/63 16/6/63 24/33/63
f 16/6/64 6/26/64 24/33/64
f 17/15/65 22/27/65 6/26/65
f 17/15/66 20/14/66 22/27/66
f 20/14/67 5/23/67 22/27/67
f 20/12/68 21/24/68 5/23/68
f 20/12/69 18/11/69 21/24/69
f 18/11/70 4/20/70 21/24/70
f 18/9/71 19/21/71 4/20/71
f 18/9/72 13/8/72 19/21/72
f 13/8/73 3/61/73 19/21/73
f 16/6/74 17/62/74 6/26/74
f 16/6/75 14/5/75 17/62/75
f 14/5/76 1/63/76 17/62/76
f 13/3/77 15/18/77 3/17/77
f 13/3/78 14/2/78 15/18/78
f 14/2/79 2/4/79 15/18/79
